<?xml version="1.0" encoding="UTF-8"?> <svg xmlns="http://www.w3.org/2000/svg" id="segments_-_front" data-name="segments - front" viewBox="0 0 1140 1140"><defs><style>.cls-1{fill:#fff;}</style></defs><path class="cls-1" d="M152.64,567.29A416.23,416.23,0,0,1,172.78,439l-57-18.52a476,476,0,0,0-23,146.85A483.94,483.94,0,0,0,95.3,617a470.51,470.51,0,0,0,60.92,187.94l51.91-30a411,411,0,0,1-53.24-164.23A422.07,422.07,0,0,1,152.64,567.29Z"></path><path class="cls-1" d="M980.61,610.69a411,411,0,0,1-53.24,164.23A419.44,419.44,0,0,1,811.78,903.17L847,951.65A480.51,480.51,0,0,0,979.28,804.89,470.51,470.51,0,0,0,1040.2,617Z"></path></svg> 